<svg width="19" height="18" viewBox="0 0 19 18" fill="none" xmlns="http://www.w3.org/2000/svg">
<g id="Twitter" clip-path="url(#clip0_4683_2146)">
<g id="Group">
<path id="Vector" d="M18.9961 3.73137C18.3267 4.025 17.6135 4.21962 16.8698 4.31412C17.6348 3.85737 18.2187 3.13962 18.4932 2.2745C17.78 2.69975 16.9925 3.00013 16.1532 3.16775C15.476 2.44663 14.5107 2 13.4577 2C11.4147 2 9.76997 3.65825 9.76997 5.69113C9.76997 5.98363 9.79472 6.26487 9.85547 6.53262C6.78759 6.383 4.07297 4.91263 2.24934 2.67275C1.93097 3.22513 1.74422 3.85738 1.74422 4.538C1.74422 5.816 2.40234 6.94887 3.38334 7.60475C2.79047 7.5935 2.20884 7.42138 1.71609 7.15025C1.71609 7.1615 1.71609 7.17613 1.71609 7.19075C1.71609 8.984 2.99522 10.4735 4.67259 10.8166C4.37222 10.8988 4.04484 10.9381 3.70509 10.9381C3.46884 10.9381 3.23034 10.9246 3.00647 10.8751C3.48459 12.3365 4.84134 13.4109 6.45459 13.4457C5.19909 14.4279 3.60497 15.0196 1.87922 15.0196C1.57659 15.0196 1.28634 15.0061 0.996094 14.969C2.63072 16.0231 4.56797 16.625 6.65709 16.625C13.4476 16.625 17.1601 11 17.1601 6.12425C17.1601 5.96112 17.1545 5.80363 17.1466 5.64725C17.879 5.1275 18.4943 4.47837 18.9961 3.73137Z" fill="white"/>
</g>
</g>
<defs>
<clipPath id="clip0_4683_2146">
<rect width="18" height="18" fill="white" transform="translate(0.996094)"/>
</clipPath>
</defs>
</svg>
