<svg width="19" height="18" viewBox="0 0 19 18" fill="none" xmlns="http://www.w3.org/2000/svg">
<g id="Frame 74">
<path id="Youtube" fill-rule="evenodd" clip-rule="evenodd" d="M17.0388 3.38548C17.8098 3.59312 18.4177 4.20094 18.6252 4.97204C19.0109 6.38048 18.996 9.31629 18.996 9.31629C18.996 9.31629 18.996 12.2371 18.6254 13.6457C18.4177 14.4167 17.8099 15.0246 17.0388 15.2321C15.6302 15.6029 9.99606 15.6029 9.99606 15.6029C9.99606 15.6029 4.37657 15.6029 2.9533 15.2174C2.1822 15.0098 1.57438 14.4018 1.36674 13.6309C0.996094 12.2371 0.996094 9.30146 0.996094 9.30146C0.996094 9.30146 0.996094 6.38048 1.36674 4.97204C1.57425 4.20108 2.19703 3.57829 2.95316 3.37079C4.36174 3 9.99592 3 9.99592 3C9.99592 3 15.6302 3 17.0388 3.38548ZM12.8874 9.30154L8.20215 12.0001V6.60303L12.8874 9.30154Z" fill="white"/>
</g>
</svg>
