<svg width="264" height="164" viewBox="0 0 264 164" fill="none" xmlns="http://www.w3.org/2000/svg">
<g filter="url(#filter0_d_2687_79880)">
<rect width="200" height="100" transform="translate(32 32)" fill="white"/>
<g clip-path="url(#clip0_2687_79880)">
<path d="M94.3154 65.6836H95.2047C98.2919 65.7507 101.329 66.9923 103.51 69.1903C102.705 70.0125 101.883 70.8011 101.094 71.6232C99.8691 70.5158 98.3926 69.6601 96.7819 69.3581C94.3993 68.8547 91.8322 69.3078 89.8356 70.6668C87.6544 72.093 86.1779 74.5091 85.8591 77.093C85.5067 79.6434 86.2282 82.3279 87.8893 84.3078C89.4832 86.2373 91.9161 87.4454 94.4329 87.5293C96.7819 87.6635 99.2315 86.942 100.943 85.2977C102.285 84.14 102.906 82.3783 103.107 80.6669C100.322 80.6669 97.5369 80.6836 94.7517 80.6669V77.2105H106.48C107.084 80.9185 106.211 85.0964 103.393 87.7474C101.513 89.6266 98.9128 90.734 96.2617 90.9521C93.6946 91.2038 91.0436 90.7172 88.7617 89.4756C86.0268 88.0159 83.8456 85.5494 82.7718 82.6467C81.7651 79.9789 81.7483 76.9588 82.6879 74.2742C83.5436 71.8245 85.1879 69.6601 87.302 68.15C89.3322 66.6568 91.7987 65.8346 94.3154 65.6836Z" fill="#3780FF"/>
<path d="M161.597 66.5547H165.188V90.5144C163.997 90.5144 162.789 90.5312 161.597 90.4976C161.614 82.5278 161.597 74.5413 161.597 66.5547V66.5547Z" fill="#38B137"/>
<path d="M114.466 74.8598C116.681 74.4403 119.081 74.9101 120.909 76.2356C122.57 77.4101 123.728 79.2558 124.081 81.2692C124.534 83.6014 123.963 86.1517 122.453 87.9974C120.826 90.0611 118.158 91.1685 115.557 91.0007C113.175 90.8665 110.859 89.6752 109.45 87.7289C107.856 85.5813 107.47 82.6282 108.342 80.1115C109.215 77.4101 111.681 75.3464 114.466 74.8598V74.8598ZM114.97 78.0477C114.064 78.2826 113.225 78.8027 112.621 79.541C110.993 81.4873 111.094 84.6584 112.889 86.4705C113.913 87.5108 115.456 87.9974 116.883 87.7121C118.208 87.4772 119.366 86.588 120.003 85.4135C121.111 83.4168 120.792 80.6652 119.097 79.1047C118.007 78.098 116.413 77.6786 114.97 78.0477Z" fill="#FA3913"/>
<path d="M132.252 74.861C134.785 74.3744 137.554 75.0791 139.45 76.8577C142.537 79.6261 142.872 84.8107 140.238 87.9986C138.644 90.012 136.06 91.1194 133.51 91.0019C131.077 90.9348 128.678 89.7268 127.235 87.7301C125.607 85.5321 125.255 82.512 126.178 79.9449C127.101 77.3275 129.517 75.3308 132.252 74.861V74.861ZM132.755 78.0489C131.849 78.2838 131.01 78.804 130.406 79.5254C128.795 81.4382 128.862 84.559 130.591 86.3878C131.614 87.4784 133.208 88.0154 134.685 87.7133C135.993 87.4617 137.168 86.5892 137.805 85.4147C138.896 83.4013 138.577 80.6496 136.866 79.0892C135.775 78.0825 134.181 77.6798 132.755 78.0489Z" fill="#FCBD06"/>
<path d="M147.336 75.8347C149.265 74.6266 151.832 74.2911 153.913 75.3313C154.567 75.6166 155.104 76.1031 155.624 76.5897C155.641 76.1367 155.624 75.6669 155.641 75.1971C156.765 75.2139 157.889 75.1971 159.03 75.2139V90.0125C159.013 92.2441 158.443 94.6098 156.832 96.2373C155.07 98.0326 152.369 98.5863 149.936 98.2172C147.336 97.8313 145.07 95.9353 144.064 93.536C145.07 93.0494 146.127 92.6635 147.168 92.2105C147.755 93.5863 148.946 94.7608 150.44 95.0293C151.933 95.2977 153.661 94.9286 154.634 93.687C155.674 92.4118 155.674 90.6669 155.624 89.1065C154.852 89.8615 153.963 90.5327 152.889 90.7843C150.557 91.4387 147.99 90.6333 146.195 89.0561C144.382 87.479 143.309 85.0461 143.409 82.63C143.46 79.8951 145.003 77.2609 147.336 75.8347V75.8347ZM150.809 77.9823C149.785 78.1501 148.829 78.7206 148.174 79.5092C146.597 81.3884 146.597 84.3917 148.191 86.2374C149.097 87.328 150.557 87.932 151.966 87.781C153.292 87.6467 154.517 86.8078 155.171 85.6501C156.278 83.687 156.094 81.0192 154.601 79.3078C153.678 78.2508 152.201 77.7307 150.809 77.9823V77.9823Z" fill="#3780FF"/>
<path d="M169.5 76.6891C171.513 74.81 174.617 74.1724 177.201 75.1623C179.651 76.0851 181.211 78.4173 182 80.8167C178.359 82.3267 174.735 83.82 171.094 85.3301C171.597 86.2865 172.369 87.159 173.409 87.5113C174.869 88.0314 176.614 87.8469 177.839 86.8737C178.326 86.5046 178.711 86.018 179.081 85.5482C180.003 86.169 180.926 86.773 181.849 87.3938C180.54 89.3569 178.342 90.7328 175.977 90.9509C173.359 91.2697 170.574 90.263 168.879 88.216C166.094 84.9945 166.362 79.5918 169.5 76.6891V76.6891ZM171.295 79.7932C170.725 80.6153 170.49 81.622 170.507 82.612C172.94 81.6053 175.373 80.5985 177.805 79.5751C177.403 78.6355 176.43 78.065 175.44 77.914C173.846 77.6287 172.185 78.4844 171.295 79.7932V79.7932Z" fill="#FA3913"/>
</g>
</g>
<defs>
<filter id="filter0_d_2687_79880" x="0" y="0" width="264" height="164" filterUnits="userSpaceOnUse" color-interpolation-filters="sRGB">
<feFlood flood-opacity="0" result="BackgroundImageFix"/>
<feColorMatrix in="SourceAlpha" type="matrix" values="0 0 0 0 0 0 0 0 0 0 0 0 0 0 0 0 0 0 127 0" result="hardAlpha"/>
<feOffset/>
<feGaussianBlur stdDeviation="16"/>
<feComposite in2="hardAlpha" operator="out"/>
<feColorMatrix type="matrix" values="0 0 0 0 0.0344445 0 0 0 0 0.102745 0 0 0 0 0.266667 0 0 0 0.07 0"/>
<feBlend mode="normal" in2="BackgroundImageFix" result="effect1_dropShadow_2687_79880"/>
<feBlend mode="normal" in="SourceGraphic" in2="effect1_dropShadow_2687_79880" result="shape"/>
</filter>
<clipPath id="clip0_2687_79880">
<rect width="100" height="100" fill="white" transform="translate(82 32)"/>
</clipPath>
</defs>
</svg>
