<svg width="264" height="164" viewBox="0 0 264 164" fill="none" xmlns="http://www.w3.org/2000/svg">
<g filter="url(#filter0_d_2687_79885)">
<rect width="200" height="100" transform="translate(32 32)" fill="white"/>
<path d="M123.913 76.0874C122.107 76.0874 120.053 76.9244 118.799 78.6002L118.799 78.5969L118.799 78.5977L118.799 76.3505H114.493V92.0339H118.799V83.1099C118.799 81.5038 120.044 79.7963 122.35 79.7963C124.132 79.7963 125.976 81.0359 125.976 83.1099V92.0339H130.282V82.3119C130.282 78.7046 127.701 76.0874 123.913 76.0874V76.0874ZM160.891 76.3513L156.998 87.0343L153.104 76.3513H148.185L154.638 92.0297H159.357L165.81 76.3513H160.891ZM101.636 81.0759C102.369 80.0911 103.537 79.5129 104.948 79.5129C106.5 79.5129 107.678 80.3992 108.286 81.7074L100.762 84.8291C100.557 83.227 100.967 81.9741 101.636 81.0759V81.0759ZM109.909 87.2121C108.097 88.5535 107.061 88.8735 105.408 88.8735C103.921 88.8735 102.756 88.4117 101.935 87.6018L112.945 83.0343C112.705 81.3323 112.059 79.8117 111.065 78.6555C109.618 76.9755 107.477 76.0866 104.87 76.0866C100.135 76.0866 96.564 79.58 96.564 84.1941C96.564 88.9279 100.143 92.3006 105.345 92.3006C108.259 92.3006 111.239 90.9194 112.633 89.3056L109.909 87.2121ZM96.1535 88.0796H86.3655V71.6602H82V92.0339H96.1535V88.0796ZM173.543 79.7771C171.138 79.7771 169.391 81.5998 169.391 84.1925C169.391 86.6681 171.241 88.6079 173.601 88.6079C176.006 88.6079 177.752 86.7351 177.752 84.1925C177.752 81.7169 175.903 79.7771 173.543 79.7771V79.7771ZM173.543 92.2984C168.833 92.2984 165.142 88.7895 165.142 84.1925C165.142 79.647 168.858 76.0866 173.601 76.0866C178.311 76.0866 182 79.5953 182 84.1925C182 88.7369 178.285 92.2982 173.543 92.2982V92.2984ZM140.385 79.7771C137.98 79.7771 136.235 81.5998 136.235 84.1925C136.235 86.6681 138.084 88.6079 140.444 88.6079C142.849 88.6079 144.595 86.7351 144.595 84.1925C144.595 81.7169 142.745 79.7771 140.385 79.7771ZM140.385 92.2984C135.676 92.2984 131.986 88.7895 131.986 84.1925C131.986 79.647 135.701 76.0866 140.444 76.0866C145.153 76.0866 148.843 79.5953 148.843 84.1925C148.843 88.7369 145.128 92.2982 140.385 92.2982" fill="#E60012"/>
</g>
<defs>
<filter id="filter0_d_2687_79885" x="0" y="0" width="264" height="164" filterUnits="userSpaceOnUse" color-interpolation-filters="sRGB">
<feFlood flood-opacity="0" result="BackgroundImageFix"/>
<feColorMatrix in="SourceAlpha" type="matrix" values="0 0 0 0 0 0 0 0 0 0 0 0 0 0 0 0 0 0 127 0" result="hardAlpha"/>
<feOffset/>
<feGaussianBlur stdDeviation="16"/>
<feComposite in2="hardAlpha" operator="out"/>
<feColorMatrix type="matrix" values="0 0 0 0 0.0344445 0 0 0 0 0.102745 0 0 0 0 0.266667 0 0 0 0.07 0"/>
<feBlend mode="normal" in2="BackgroundImageFix" result="effect1_dropShadow_2687_79885"/>
<feBlend mode="normal" in="SourceGraphic" in2="effect1_dropShadow_2687_79885" result="shape"/>
</filter>
</defs>
</svg>
