<svg width="264" height="164" viewBox="0 0 264 164" fill="none" xmlns="http://www.w3.org/2000/svg">
<g filter="url(#filter0_d_2687_79870)">
<rect width="200" height="100" transform="translate(32 32)" fill="white"/>
<path d="M95.7503 93.7719C94.246 94.0361 92.7152 94.1153 91.1317 94.3262L86.3019 80.1801V94.9334C84.7976 95.0917 83.4252 95.3028 82 95.5139V68.4883H86.0117L91.5012 83.8224V68.4883H95.7503V93.7719ZM104.064 78.3854C105.7 78.3854 108.208 78.3062 109.712 78.3062V82.5288C107.838 82.5288 105.647 82.5288 104.064 82.608V88.8895C106.545 88.7312 109.026 88.5199 111.533 88.4407V92.5048L99.841 93.4288V68.4883H111.533V72.711H104.064V78.3854ZM127.236 72.7111H122.855V92.1358C121.43 92.1358 120.005 92.1358 118.633 92.1884V72.7111H114.251V68.4883H127.236L127.236 72.7111V72.7111ZM134.098 78.0951H139.878V82.3178H134.098V91.8983H129.954V68.4883H141.752V72.711H134.098V78.0951ZM148.614 88.2033C151.016 88.2559 153.443 88.441 155.792 88.5727V92.7427C152.018 92.505 148.244 92.2678 144.391 92.1884V68.4883H148.614V88.2033ZM159.355 93.0331C160.701 93.1124 162.127 93.1916 163.499 93.3497V68.4883H159.355V93.0331ZM182 68.4883L176.642 81.3413L182 95.5139C180.416 95.3028 178.833 95.0125 177.249 94.7485L174.214 86.9366L171.127 94.1153C169.596 93.8511 168.118 93.7719 166.587 93.5608L172.024 81.1828L167.115 68.4883H171.654L174.425 75.5878L177.381 68.4883H182Z" fill="#D81F26"/>
</g>
<defs>
<filter id="filter0_d_2687_79870" x="0" y="0" width="264" height="164" filterUnits="userSpaceOnUse" color-interpolation-filters="sRGB">
<feFlood flood-opacity="0" result="BackgroundImageFix"/>
<feColorMatrix in="SourceAlpha" type="matrix" values="0 0 0 0 0 0 0 0 0 0 0 0 0 0 0 0 0 0 127 0" result="hardAlpha"/>
<feOffset/>
<feGaussianBlur stdDeviation="16"/>
<feComposite in2="hardAlpha" operator="out"/>
<feColorMatrix type="matrix" values="0 0 0 0 0.0344445 0 0 0 0 0.102745 0 0 0 0 0.266667 0 0 0 0.07 0"/>
<feBlend mode="normal" in2="BackgroundImageFix" result="effect1_dropShadow_2687_79870"/>
<feBlend mode="normal" in="SourceGraphic" in2="effect1_dropShadow_2687_79870" result="shape"/>
</filter>
</defs>
</svg>
