<svg width="264" height="164" viewBox="0 0 264 164" fill="none" xmlns="http://www.w3.org/2000/svg">
<g filter="url(#filter0_d_2687_79875)">
<rect width="200" height="100" transform="translate(32 32)" fill="white"/>
<g clip-path="url(#clip0_2687_79875)">
<path fill-rule="evenodd" clip-rule="evenodd" d="M110.407 71.5045C111.782 71.8749 112.863 72.9555 113.228 74.3254C113.893 76.8114 113.893 82.0018 113.893 82.0018C113.893 82.0018 113.893 87.192 113.228 89.678C112.857 91.0529 111.777 92.1336 110.407 92.4989C107.921 93.1636 97.9463 93.1636 97.9463 93.1636C97.9463 93.1636 87.9767 93.1636 85.4856 92.4989C84.1107 92.1285 83.03 91.048 82.6647 89.678C82 87.192 82 82.0017 82 82.0017C82 82.0017 82 76.8114 82.6647 74.3254C83.0351 72.9505 84.1158 71.8698 85.4856 71.5045C87.9767 70.8398 97.9463 70.8398 97.9463 70.8398C97.9463 70.8398 107.921 70.8398 110.407 71.5045ZM103.045 82.0017L94.7601 86.7862V77.2174L103.045 82.0017Z" fill="#FF0000"/>
<path fill-rule="evenodd" clip-rule="evenodd" d="M128.291 91.1495C127.662 90.7234 127.211 90.0638 126.947 89.1659C126.683 88.2678 126.546 87.0756 126.546 85.5838V83.5545C126.546 82.0477 126.698 80.8402 127.003 79.9268C127.307 79.0136 127.784 78.349 128.428 77.9329C129.073 77.5169 129.92 77.3039 130.97 77.3039C132.005 77.3039 132.832 77.5169 133.456 77.9431C134.08 78.3692 134.537 79.0339 134.826 79.937C135.115 80.8402 135.257 82.0477 135.257 83.5493V85.5789C135.257 87.0704 135.115 88.2678 134.836 89.1709C134.557 90.0739 134.101 90.7386 133.466 91.1546C132.837 91.5706 131.98 91.7839 130.899 91.7839C129.793 91.7888 128.92 91.5758 128.291 91.1495V91.1495ZM131.828 88.9578C132 88.5012 132.092 87.7553 132.092 86.7255V82.3673C132.092 81.3626 132.005 80.6321 131.828 80.1654C131.655 79.7036 131.346 79.4703 130.904 79.4703C130.478 79.4703 130.179 79.7036 130.001 80.1654C129.829 80.627 129.737 81.3626 129.737 82.3673V86.7255C129.737 87.7605 129.819 88.5063 129.986 88.9578C130.153 89.4145 130.458 89.6427 130.899 89.6427C131.346 89.6427 131.65 89.4145 131.828 88.9578V88.9578ZM176.729 85.6194V86.3247C176.729 87.2227 176.754 87.8923 176.81 88.3439C176.861 88.7904 176.972 89.1201 177.14 89.3232C177.307 89.5261 177.566 89.6326 177.916 89.6326C178.388 89.6326 178.712 89.45 178.885 89.0846C179.058 88.7194 179.154 88.1105 179.169 87.2582L181.883 87.4155C181.899 87.5372 181.904 87.7046 181.904 87.9176C181.904 89.2115 181.549 90.1754 180.843 90.8147C180.138 91.454 179.139 91.7736 177.845 91.7736C176.292 91.7736 175.207 91.2865 174.583 90.3124C173.959 89.3383 173.649 87.8365 173.649 85.797V83.3566C173.649 81.2562 173.974 79.7289 174.618 78.7601C175.262 77.796 176.368 77.314 177.936 77.314C179.017 77.314 179.844 77.5119 180.422 77.9076C181.001 78.3033 181.407 78.9171 181.645 79.7544C181.878 80.5915 182 81.7484 182 83.2196V85.6144H176.729V85.6194ZM177.129 79.734C176.972 79.932 176.866 80.2566 176.81 80.7032C176.754 81.1496 176.729 81.8346 176.729 82.7427V83.7473H179.032V82.7427C179.032 81.8446 179.002 81.1648 178.941 80.7032C178.88 80.2414 178.768 79.9117 178.611 79.724C178.454 79.5362 178.205 79.4398 177.87 79.4398C177.535 79.4347 177.287 79.5362 177.129 79.734ZM120.63 85.3556L117.048 72.4231H120.174L121.427 78.2831C121.747 79.7291 121.98 80.9569 122.132 81.9766H122.223C122.33 81.246 122.563 80.0233 122.929 78.3033L124.227 72.418H127.353L123.73 85.3556V91.5605H120.63V85.3556ZM145.42 77.5779V91.5554H142.959L142.685 89.8457H142.619C141.949 91.1394 140.945 91.7838 139.61 91.7838C138.682 91.7838 137.997 91.4794 137.556 90.8705C137.114 90.2617 136.896 89.313 136.896 88.0193V77.5779H140.042V87.8416C140.042 88.4657 140.108 88.9122 140.245 89.176C140.382 89.4398 140.61 89.5768 140.93 89.5768C141.204 89.5768 141.467 89.4955 141.716 89.3282C141.965 89.1608 142.152 88.9476 142.274 88.6889V77.5778L145.42 77.5779ZM161.564 77.5779V91.5554H159.103L158.829 89.8457H158.763C158.093 91.1394 157.089 91.7838 155.755 91.7838C154.826 91.7838 154.141 91.4794 153.7 90.8705C153.258 90.2617 153.04 89.313 153.04 88.0193V77.5779H156.186V87.8416C156.186 88.4657 156.252 88.9122 156.389 89.176C156.526 89.4398 156.754 89.5768 157.074 89.5768C157.348 89.5768 157.612 89.4955 157.86 89.3282C158.109 89.1608 158.296 88.9476 158.418 88.6889V77.5778L161.564 77.5779Z" fill="#282828"/>
<path fill-rule="evenodd" clip-rule="evenodd" d="M153.974 74.9557H150.849V91.5563H147.769V74.9557H144.644V72.4241H153.969V74.9557H153.974ZM171.98 79.8161C171.787 78.9334 171.483 78.2941 171.056 77.8984C170.63 77.5026 170.047 77.3048 169.301 77.3048C168.723 77.3048 168.185 77.4671 167.683 77.7969C167.18 78.1216 166.795 78.5529 166.521 79.0856H166.495V71.7188H163.461V91.5614H166.059L166.379 90.2373H166.445C166.688 90.7091 167.053 91.0795 167.54 91.3534C168.028 91.6274 168.565 91.7644 169.159 91.7644C170.224 91.7644 171.006 91.2722 171.508 90.293C172.01 89.3139 172.259 87.7817 172.259 85.6964V83.4843C172.264 81.9216 172.168 80.699 171.98 79.8162V79.8161ZM169.093 85.5188C169.093 86.5387 169.052 87.3351 168.966 87.9136C168.885 88.492 168.743 88.9029 168.545 89.1465C168.347 89.3899 168.083 89.5117 167.749 89.5117C167.49 89.5117 167.251 89.4509 167.028 89.3291C166.81 89.2073 166.627 89.0247 166.49 88.7811V80.8411C166.597 80.4605 166.78 80.1511 167.038 79.9076C167.297 79.664 167.576 79.5422 167.88 79.5422C168.2 79.5422 168.449 79.669 168.621 79.9176C168.794 80.1663 168.916 80.5924 168.986 81.1809C169.053 81.7745 169.088 82.6168 169.088 83.7125V85.5188H169.093Z" fill="#282828"/>
</g>
</g>
<defs>
<filter id="filter0_d_2687_79875" x="0" y="0" width="264" height="164" filterUnits="userSpaceOnUse" color-interpolation-filters="sRGB">
<feFlood flood-opacity="0" result="BackgroundImageFix"/>
<feColorMatrix in="SourceAlpha" type="matrix" values="0 0 0 0 0 0 0 0 0 0 0 0 0 0 0 0 0 0 127 0" result="hardAlpha"/>
<feOffset/>
<feGaussianBlur stdDeviation="16"/>
<feComposite in2="hardAlpha" operator="out"/>
<feColorMatrix type="matrix" values="0 0 0 0 0.0344445 0 0 0 0 0.102745 0 0 0 0 0.266667 0 0 0 0.07 0"/>
<feBlend mode="normal" in2="BackgroundImageFix" result="effect1_dropShadow_2687_79875"/>
<feBlend mode="normal" in="SourceGraphic" in2="effect1_dropShadow_2687_79875" result="shape"/>
</filter>
<clipPath id="clip0_2687_79875">
<rect width="100" height="100" fill="white" transform="translate(82 32)"/>
</clipPath>
</defs>
</svg>
